G04 #@! TF.FileFunction,Copper,L2,Bot,Signal*
%FSLAX46Y46*%
G04 Gerber Fmt 4.6, Leading zero omitted, Abs format (unit mm)*
G04 Created by KiCad (PCBNEW 4.0.7-e2-6376~58~ubuntu16.04.1) date Mon Dec 18 21:23:22 2017*
%MOMM*%
%LPD*%
G01*
G04 APERTURE LIST*
%ADD10C,0.100000*%
%ADD11C,1.524000*%
%ADD12C,2.400000*%
%ADD13O,2.400000X2.400000*%
%ADD14R,1.700000X1.700000*%
%ADD15O,1.700000X1.700000*%
%ADD16C,0.685800*%
%ADD17C,0.609600*%
%ADD18C,0.304800*%
G04 APERTURE END LIST*
D10*
D11*
X158102684Y-131216400D03*
X158089600Y-128676400D03*
X158089600Y-126136400D03*
X158102684Y-123597358D03*
X158102684Y-121057358D03*
X158102684Y-118517358D03*
X158102684Y-115977358D03*
X158102684Y-113437358D03*
X158102684Y-110897358D03*
X158102684Y-108357358D03*
X158102684Y-105817358D03*
X158102684Y-103277358D03*
X158102684Y-100737358D03*
X158102684Y-98197358D03*
X158102684Y-95657358D03*
X173342684Y-95657358D03*
X173342684Y-98197358D03*
X173342684Y-100737358D03*
X173342684Y-103277358D03*
X173342684Y-105817358D03*
X173342684Y-108357358D03*
X173342684Y-110897358D03*
X173342684Y-113437358D03*
X173342684Y-115977358D03*
X173342684Y-118517358D03*
X173342684Y-121057358D03*
X173342684Y-123597358D03*
X173342684Y-126137358D03*
X173342684Y-128677358D03*
X173342684Y-131217358D03*
X160642684Y-98197358D03*
X160642684Y-95657358D03*
X163182684Y-98197358D03*
X163182684Y-95657358D03*
X165722684Y-98197358D03*
X165722684Y-95657358D03*
X168262684Y-98197358D03*
X168262684Y-95657358D03*
X170802684Y-98197358D03*
X170802684Y-95657358D03*
X160642684Y-123597358D03*
X160642684Y-103277358D03*
X160642684Y-100737358D03*
X170802684Y-100737358D03*
D12*
X162052000Y-107188000D03*
D13*
X162052000Y-112268000D03*
D12*
X168706800Y-107162600D03*
D13*
X168706800Y-112242600D03*
D14*
X150368000Y-99568000D03*
D15*
X150368000Y-102108000D03*
X152908000Y-102108000D03*
X150368000Y-104648000D03*
X152908000Y-104648000D03*
X150368000Y-107188000D03*
X152908000Y-107188000D03*
X152908000Y-109728000D03*
X152908000Y-112268000D03*
X150368000Y-114808000D03*
X152908000Y-114808000D03*
X150368000Y-117348000D03*
X152908000Y-117348000D03*
X150368000Y-119888000D03*
X152908000Y-119888000D03*
X150368000Y-122428000D03*
D14*
X179705000Y-105410000D03*
X179705000Y-120015000D03*
X144145000Y-106045000D03*
X149225000Y-90170000D03*
X158115000Y-90170000D03*
X179705000Y-128905000D03*
X179705000Y-92075000D03*
X179705000Y-112395000D03*
X174625000Y-90170000D03*
X167005000Y-90170000D03*
X144145000Y-120650000D03*
X159385000Y-136525000D03*
X144145000Y-113030000D03*
X170815000Y-136525000D03*
X179705000Y-98425000D03*
D16*
X147828000Y-109347000D03*
X150241000Y-111760000D03*
X147828000Y-112903000D03*
X149098000Y-125222000D03*
X151257000Y-125222000D03*
X156464000Y-114935000D03*
X170180000Y-132080000D03*
X162560000Y-132080000D03*
X158750000Y-96901000D03*
X154559000Y-96520000D03*
X151003000Y-95758000D03*
X151155400Y-129311400D03*
X151993600Y-121818400D03*
X155829000Y-110871000D03*
X159486600Y-106172000D03*
X151638000Y-103301800D03*
X151231600Y-108864400D03*
X154305000Y-131749800D03*
D17*
X147828000Y-109347000D02*
X150241000Y-111760000D01*
D18*
X147828000Y-112903000D02*
X149733000Y-114808000D01*
X149733000Y-114808000D02*
X150368000Y-114808000D01*
X149098000Y-125222000D02*
X151130000Y-125222000D01*
X151130000Y-125222000D02*
X151257000Y-125222000D01*
X156464000Y-114935000D02*
X156464000Y-112395000D01*
X156464000Y-112395000D02*
X157961642Y-110897358D01*
X157961642Y-110897358D02*
X158102684Y-110897358D01*
X170815000Y-136525000D02*
X170815000Y-132715000D01*
X170815000Y-132715000D02*
X170180000Y-132080000D01*
X173342684Y-115977358D02*
X175667358Y-115977358D01*
X175667358Y-115977358D02*
X179705000Y-120015000D01*
X173342684Y-113437358D02*
X178662642Y-113437358D01*
X178662642Y-113437358D02*
X179705000Y-112395000D01*
X159385000Y-135255000D02*
X162560000Y-132080000D01*
X159385000Y-136525000D02*
X159385000Y-135255000D01*
D17*
X179705000Y-128905000D02*
X175655042Y-128905000D01*
X175655042Y-128905000D02*
X173342684Y-131217358D01*
X173342684Y-131217358D02*
X160222242Y-131217358D01*
X146913600Y-101447600D02*
X150368000Y-99568000D01*
X146913600Y-129032000D02*
X146913600Y-101447600D01*
X152247600Y-132791200D02*
X146913600Y-129032000D01*
X158648400Y-132791200D02*
X152247600Y-132791200D01*
X160222242Y-131217358D02*
X158648400Y-132791200D01*
D18*
X179705000Y-105410000D02*
X178830042Y-105410000D01*
X178830042Y-105410000D02*
X173342684Y-110897358D01*
X173342684Y-110897358D02*
X169825358Y-110897358D01*
X151638000Y-105918000D02*
X150368000Y-104648000D01*
X151638000Y-107950000D02*
X151638000Y-105918000D01*
X152146000Y-108458000D02*
X151638000Y-107950000D01*
X154178000Y-108458000D02*
X152146000Y-108458000D01*
X155448000Y-109728000D02*
X154178000Y-108458000D01*
X158496000Y-109728000D02*
X155448000Y-109728000D01*
X159258000Y-110490000D02*
X158496000Y-109728000D01*
X169418000Y-110490000D02*
X159258000Y-110490000D01*
X169825358Y-110897358D02*
X169418000Y-110490000D01*
X179705000Y-98425000D02*
X179705000Y-101995042D01*
X179705000Y-101995042D02*
X173342684Y-108357358D01*
X173342684Y-108357358D02*
X172312642Y-108357358D01*
X155194000Y-106934000D02*
X152908000Y-104648000D01*
X158496000Y-106934000D02*
X155194000Y-106934000D01*
X161290000Y-109728000D02*
X158496000Y-106934000D01*
X170942000Y-109728000D02*
X161290000Y-109728000D01*
X172312642Y-108357358D02*
X170942000Y-109728000D01*
X149225000Y-90170000D02*
X149225000Y-93980000D01*
X154940000Y-96901000D02*
X158750000Y-96901000D01*
X154559000Y-96520000D02*
X154940000Y-96901000D01*
X149225000Y-93980000D02*
X151003000Y-95758000D01*
X151155400Y-129311400D02*
X151993600Y-128473200D01*
X151993600Y-128473200D02*
X151993600Y-121818400D01*
X167005000Y-90170000D02*
X167005000Y-90424000D01*
X167005000Y-90424000D02*
X164465000Y-92964000D01*
X164465000Y-92964000D02*
X164465000Y-98806000D01*
X164465000Y-98806000D02*
X162052000Y-101219000D01*
X162052000Y-101219000D02*
X162052000Y-103606600D01*
X162052000Y-103606600D02*
X159486600Y-106172000D01*
X160642684Y-95657358D02*
X160642684Y-95744916D01*
X160642684Y-95744916D02*
X159486600Y-96901000D01*
X155575000Y-114681000D02*
X152908000Y-117348000D01*
X155575000Y-111125000D02*
X155575000Y-114681000D01*
X155829000Y-110871000D02*
X155575000Y-111125000D01*
X159486600Y-96901000D02*
X159486600Y-106172000D01*
X158115000Y-90170000D02*
X158115000Y-90297000D01*
X158115000Y-90297000D02*
X161163000Y-93345000D01*
X161163000Y-93345000D02*
X161163000Y-93319600D01*
X163182684Y-98197358D02*
X163182684Y-98006284D01*
X163182684Y-98006284D02*
X161925000Y-96748600D01*
X161925000Y-96748600D02*
X161925000Y-94081600D01*
X161925000Y-94081600D02*
X161163000Y-93319600D01*
X161163000Y-93319600D02*
X161061400Y-93218000D01*
X161061400Y-93218000D02*
X153873200Y-93218000D01*
X153873200Y-93218000D02*
X152019000Y-95072200D01*
X152019000Y-95072200D02*
X152019000Y-101015800D01*
X152019000Y-101015800D02*
X151638000Y-101396800D01*
X151638000Y-101396800D02*
X151638000Y-103301800D01*
X151231600Y-108864400D02*
X151155400Y-108940600D01*
X151155400Y-108940600D02*
X151155400Y-113487200D01*
X151155400Y-113487200D02*
X151612600Y-113944400D01*
X151612600Y-113944400D02*
X151612600Y-118643400D01*
X151612600Y-118643400D02*
X150368000Y-119888000D01*
X174625000Y-90170000D02*
X173990000Y-90170000D01*
X173990000Y-90170000D02*
X169545000Y-94615000D01*
X169545000Y-94615000D02*
X169545000Y-99822000D01*
X169545000Y-99822000D02*
X169037000Y-100330000D01*
X169037000Y-100330000D02*
X165481000Y-100330000D01*
X165481000Y-100330000D02*
X164592000Y-99441000D01*
X164592000Y-99441000D02*
X164592000Y-99328042D01*
X164592000Y-99328042D02*
X165722684Y-98197358D01*
X154305000Y-121361200D02*
X152908000Y-119964200D01*
X154305000Y-131749800D02*
X154305000Y-121361200D01*
X152908000Y-119964200D02*
X152908000Y-119888000D01*
M02*
