G04 #@! TF.FileFunction,Other,User*
%FSLAX46Y46*%
G04 Gerber Fmt 4.6, Leading zero omitted, Abs format (unit mm)*
G04 Created by KiCad (PCBNEW 4.0.7-e2-6376~58~ubuntu16.04.1) date Mon Dec 18 21:23:22 2017*
%MOMM*%
%LPD*%
G01*
G04 APERTURE LIST*
%ADD10C,0.100000*%
%ADD11C,0.050000*%
G04 APERTURE END LIST*
D10*
D11*
X164652000Y-104588000D02*
X159452000Y-104588000D01*
X159452000Y-104588000D02*
X159452000Y-113788000D01*
X159452000Y-113788000D02*
X164652000Y-113788000D01*
X164652000Y-113788000D02*
X164652000Y-104588000D01*
X171306800Y-104562600D02*
X166106800Y-104562600D01*
X166106800Y-104562600D02*
X166106800Y-113762600D01*
X166106800Y-113762600D02*
X171306800Y-113762600D01*
X171306800Y-113762600D02*
X171306800Y-104562600D01*
X166409800Y-129959600D02*
X166409800Y-125259600D01*
X166409800Y-129959600D02*
X168209800Y-129959600D01*
X168209800Y-125259600D02*
X166409800Y-125259600D01*
X168209800Y-125259600D02*
X168209800Y-129959600D01*
X166359000Y-121984000D02*
X166359000Y-117284000D01*
X166359000Y-121984000D02*
X168159000Y-121984000D01*
X168159000Y-117284000D02*
X166359000Y-117284000D01*
X168159000Y-117284000D02*
X168159000Y-121984000D01*
X162930000Y-121984000D02*
X162930000Y-117284000D01*
X162930000Y-121984000D02*
X164730000Y-121984000D01*
X164730000Y-117284000D02*
X162930000Y-117284000D01*
X164730000Y-117284000D02*
X164730000Y-121984000D01*
X162980800Y-129959600D02*
X162980800Y-125259600D01*
X162980800Y-129959600D02*
X164780800Y-129959600D01*
X164780800Y-125259600D02*
X162980800Y-125259600D01*
X164780800Y-125259600D02*
X164780800Y-129959600D01*
X148568000Y-97768000D02*
X148568000Y-124218000D01*
X148568000Y-124218000D02*
X154718000Y-124218000D01*
X154718000Y-124218000D02*
X154718000Y-97768000D01*
X154718000Y-97768000D02*
X148568000Y-97768000D01*
X177905000Y-107210000D02*
X181505000Y-107210000D01*
X181505000Y-107210000D02*
X181505000Y-103610000D01*
X181505000Y-103610000D02*
X177905000Y-103610000D01*
X177905000Y-103610000D02*
X177905000Y-107210000D01*
X177905000Y-121815000D02*
X181505000Y-121815000D01*
X181505000Y-121815000D02*
X181505000Y-118215000D01*
X181505000Y-118215000D02*
X177905000Y-118215000D01*
X177905000Y-118215000D02*
X177905000Y-121815000D01*
X145945000Y-104245000D02*
X142345000Y-104245000D01*
X142345000Y-104245000D02*
X142345000Y-107845000D01*
X142345000Y-107845000D02*
X145945000Y-107845000D01*
X145945000Y-107845000D02*
X145945000Y-104245000D01*
X151025000Y-91970000D02*
X151025000Y-88370000D01*
X151025000Y-88370000D02*
X147425000Y-88370000D01*
X147425000Y-88370000D02*
X147425000Y-91970000D01*
X147425000Y-91970000D02*
X151025000Y-91970000D01*
X159915000Y-91970000D02*
X159915000Y-88370000D01*
X159915000Y-88370000D02*
X156315000Y-88370000D01*
X156315000Y-88370000D02*
X156315000Y-91970000D01*
X156315000Y-91970000D02*
X159915000Y-91970000D01*
X177905000Y-130705000D02*
X181505000Y-130705000D01*
X181505000Y-130705000D02*
X181505000Y-127105000D01*
X181505000Y-127105000D02*
X177905000Y-127105000D01*
X177905000Y-127105000D02*
X177905000Y-130705000D01*
X177905000Y-93875000D02*
X181505000Y-93875000D01*
X181505000Y-93875000D02*
X181505000Y-90275000D01*
X181505000Y-90275000D02*
X177905000Y-90275000D01*
X177905000Y-90275000D02*
X177905000Y-93875000D01*
X177905000Y-114195000D02*
X181505000Y-114195000D01*
X181505000Y-114195000D02*
X181505000Y-110595000D01*
X181505000Y-110595000D02*
X177905000Y-110595000D01*
X177905000Y-110595000D02*
X177905000Y-114195000D01*
X176425000Y-91970000D02*
X176425000Y-88370000D01*
X176425000Y-88370000D02*
X172825000Y-88370000D01*
X172825000Y-88370000D02*
X172825000Y-91970000D01*
X172825000Y-91970000D02*
X176425000Y-91970000D01*
X168805000Y-91970000D02*
X168805000Y-88370000D01*
X168805000Y-88370000D02*
X165205000Y-88370000D01*
X165205000Y-88370000D02*
X165205000Y-91970000D01*
X165205000Y-91970000D02*
X168805000Y-91970000D01*
X145945000Y-118850000D02*
X142345000Y-118850000D01*
X142345000Y-118850000D02*
X142345000Y-122450000D01*
X142345000Y-122450000D02*
X145945000Y-122450000D01*
X145945000Y-122450000D02*
X145945000Y-118850000D01*
X157585000Y-134725000D02*
X157585000Y-138325000D01*
X157585000Y-138325000D02*
X161185000Y-138325000D01*
X161185000Y-138325000D02*
X161185000Y-134725000D01*
X161185000Y-134725000D02*
X157585000Y-134725000D01*
X145945000Y-111230000D02*
X142345000Y-111230000D01*
X142345000Y-111230000D02*
X142345000Y-114830000D01*
X142345000Y-114830000D02*
X145945000Y-114830000D01*
X145945000Y-114830000D02*
X145945000Y-111230000D01*
X169015000Y-134725000D02*
X169015000Y-138325000D01*
X169015000Y-138325000D02*
X172615000Y-138325000D01*
X172615000Y-138325000D02*
X172615000Y-134725000D01*
X172615000Y-134725000D02*
X169015000Y-134725000D01*
X177905000Y-100225000D02*
X181505000Y-100225000D01*
X181505000Y-100225000D02*
X181505000Y-96625000D01*
X181505000Y-96625000D02*
X177905000Y-96625000D01*
X177905000Y-96625000D02*
X177905000Y-100225000D01*
M02*
