G04 #@! TF.FileFunction,Other,Fab,Bot*
%FSLAX46Y46*%
G04 Gerber Fmt 4.6, Leading zero omitted, Abs format (unit mm)*
G04 Created by KiCad (PCBNEW 4.0.7-e2-6376~58~ubuntu16.04.1) date Mon Dec 18 21:23:22 2017*
%MOMM*%
%LPD*%
G01*
G04 APERTURE LIST*
%ADD10C,0.100000*%
%ADD11C,0.150000*%
%ADD12C,0.125000*%
%ADD13C,0.050000*%
G04 APERTURE END LIST*
D10*
D11*
X163423600Y-125628400D02*
X163423600Y-127914400D01*
X164439600Y-125628400D02*
X163423600Y-125628400D01*
X164439600Y-127914400D02*
X164439600Y-125628400D01*
X163423600Y-127914400D02*
X164439600Y-127914400D01*
X167614600Y-101117400D02*
X165074600Y-101117400D01*
X167614600Y-104165400D02*
X167614600Y-101117400D01*
X165074600Y-104165400D02*
X167614600Y-104165400D01*
X165074600Y-101117400D02*
X165074600Y-104165400D01*
X166979600Y-102641400D02*
G75*
G03X166979600Y-102641400I-635000J0D01*
G01*
X170916600Y-122326400D02*
X170916600Y-122580400D01*
X170916600Y-121564400D02*
X170916600Y-121818400D01*
X170916600Y-120802400D02*
X170916600Y-121056400D01*
X170916600Y-120040400D02*
X170916600Y-120294400D01*
X160502600Y-122326400D02*
X160502600Y-122580400D01*
X160502600Y-121564400D02*
X160502600Y-121818400D01*
X160502600Y-120802400D02*
X160502600Y-121056400D01*
X160502600Y-120040400D02*
X160502600Y-120294400D01*
X160883600Y-119786400D02*
X160629600Y-119786400D01*
X161645600Y-119786400D02*
X161391600Y-119786400D01*
X162407600Y-119786400D02*
X162153600Y-119786400D01*
X170535600Y-122834400D02*
X170789600Y-122834400D01*
X169773600Y-122834400D02*
X170027600Y-122834400D01*
X169265600Y-122834400D02*
X169011600Y-122834400D01*
X170535600Y-119786400D02*
X170789600Y-119786400D01*
X169773600Y-119786400D02*
X170027600Y-119786400D01*
X169011600Y-119786400D02*
X169265600Y-119786400D01*
X168249600Y-119786400D02*
X168503600Y-119786400D01*
X167487600Y-119786400D02*
X167741600Y-119786400D01*
X166725600Y-119786400D02*
X166979600Y-119786400D01*
X165963600Y-119786400D02*
X166217600Y-119786400D01*
X165201600Y-119786400D02*
X165455600Y-119786400D01*
X164439600Y-119786400D02*
X164693600Y-119786400D01*
X163677600Y-119786400D02*
X163931600Y-119786400D01*
X162915600Y-119786400D02*
X163169600Y-119786400D01*
X168249600Y-122834400D02*
X168503600Y-122834400D01*
X167487600Y-122834400D02*
X167741600Y-122834400D01*
X166725600Y-122834400D02*
X166979600Y-122834400D01*
X160883600Y-122834400D02*
X160629600Y-122834400D01*
X161645600Y-122834400D02*
X161391600Y-122834400D01*
X164439600Y-122834400D02*
X164693600Y-122834400D01*
X163677600Y-122834400D02*
X163931600Y-122834400D01*
X162915600Y-122834400D02*
X163169600Y-122834400D01*
X162153600Y-122834400D02*
X162407600Y-122834400D01*
X166344600Y-122834400D02*
X166344600Y-124231400D01*
X165074600Y-122834400D02*
X166344600Y-122834400D01*
X165074600Y-124231400D02*
X165074600Y-122834400D01*
X162534600Y-118389400D02*
X162534600Y-124231400D01*
X168884600Y-118389400D02*
X162534600Y-118389400D01*
X168884600Y-124231400D02*
X168884600Y-118389400D01*
X162534600Y-124231400D02*
X168884600Y-124231400D01*
D10*
X160375600Y-125755400D02*
X160375600Y-126517400D01*
X160883600Y-125755400D02*
X160375600Y-125755400D01*
X160883600Y-126517400D02*
X160883600Y-125755400D01*
X160375600Y-126517400D02*
X160883600Y-126517400D01*
D11*
X169773600Y-128168400D02*
X169773600Y-132486400D01*
X161645600Y-128168400D02*
X169773600Y-128168400D01*
X161645600Y-132486400D02*
X161645600Y-128168400D01*
X169773600Y-133756400D02*
X169773600Y-132486400D01*
X161645600Y-133756400D02*
X169773600Y-133756400D01*
X161645600Y-132486400D02*
X161645600Y-133756400D01*
X156819600Y-95656400D02*
G75*
G02X158089600Y-94386400I1270000J0D01*
G01*
X173329600Y-94386400D02*
G75*
G02X174599600Y-95656400I0J-1270000D01*
G01*
X174599600Y-131216400D02*
G75*
G02X173329600Y-132486400I-1270000J0D01*
G01*
X158089600Y-132486400D02*
G75*
G02X156819600Y-131216400I0J1270000D01*
G01*
X156819600Y-95656400D02*
X156819600Y-131216400D01*
X173329600Y-94386400D02*
X158089600Y-94386400D01*
X174599600Y-131216400D02*
X174599600Y-95656400D01*
X158089600Y-132486400D02*
X173329600Y-132486400D01*
D12*
X164157790Y-126164258D02*
X163657790Y-126164258D01*
X163657790Y-126283305D01*
X163681600Y-126354734D01*
X163729219Y-126402353D01*
X163776838Y-126426162D01*
X163872076Y-126449972D01*
X163943505Y-126449972D01*
X164038743Y-126426162D01*
X164086362Y-126402353D01*
X164133981Y-126354734D01*
X164157790Y-126283305D01*
X164157790Y-126164258D01*
X163895886Y-126830924D02*
X163895886Y-126664258D01*
X164157790Y-126664258D02*
X163657790Y-126664258D01*
X163657790Y-126902353D01*
X163657790Y-127092829D02*
X164062552Y-127092829D01*
X164110171Y-127116638D01*
X164133981Y-127140448D01*
X164157790Y-127188067D01*
X164157790Y-127283305D01*
X164133981Y-127330924D01*
X164110171Y-127354733D01*
X164062552Y-127378543D01*
X163657790Y-127378543D01*
X168015457Y-100796162D02*
X168348790Y-100796162D01*
X168015457Y-100581877D02*
X168277362Y-100581877D01*
X168324981Y-100605686D01*
X168348790Y-100653305D01*
X168348790Y-100724734D01*
X168324981Y-100772353D01*
X168301171Y-100796162D01*
X168324981Y-101010448D02*
X168348790Y-101058067D01*
X168348790Y-101153305D01*
X168324981Y-101200924D01*
X168277362Y-101224734D01*
X168253552Y-101224734D01*
X168205933Y-101200924D01*
X168182124Y-101153305D01*
X168182124Y-101081877D01*
X168158314Y-101034258D01*
X168110695Y-101010448D01*
X168086886Y-101010448D01*
X168039267Y-101034258D01*
X168015457Y-101081877D01*
X168015457Y-101153305D01*
X168039267Y-101200924D01*
X168324981Y-101629496D02*
X168348790Y-101581877D01*
X168348790Y-101486639D01*
X168324981Y-101439020D01*
X168277362Y-101415210D01*
X168086886Y-101415210D01*
X168039267Y-101439020D01*
X168015457Y-101486639D01*
X168015457Y-101581877D01*
X168039267Y-101629496D01*
X168086886Y-101653305D01*
X168134505Y-101653305D01*
X168182124Y-101415210D01*
X168348790Y-101867591D02*
X168015457Y-101867591D01*
X168110695Y-101867591D02*
X168063076Y-101891400D01*
X168039267Y-101915210D01*
X168015457Y-101962829D01*
X168015457Y-102010448D01*
X168348790Y-102558067D02*
X167848790Y-102558067D01*
X168039267Y-102558067D02*
X168015457Y-102605686D01*
X168015457Y-102700924D01*
X168039267Y-102748543D01*
X168063076Y-102772352D01*
X168110695Y-102796162D01*
X168253552Y-102796162D01*
X168301171Y-102772352D01*
X168324981Y-102748543D01*
X168348790Y-102700924D01*
X168348790Y-102605686D01*
X168324981Y-102558067D01*
X168015457Y-103224733D02*
X168348790Y-103224733D01*
X168015457Y-103010448D02*
X168277362Y-103010448D01*
X168324981Y-103034257D01*
X168348790Y-103081876D01*
X168348790Y-103153305D01*
X168324981Y-103200924D01*
X168301171Y-103224733D01*
X168015457Y-103391400D02*
X168015457Y-103581876D01*
X167848790Y-103462829D02*
X168277362Y-103462829D01*
X168324981Y-103486638D01*
X168348790Y-103534257D01*
X168348790Y-103581876D01*
X168015457Y-103677114D02*
X168015457Y-103867590D01*
X167848790Y-103748543D02*
X168277362Y-103748543D01*
X168324981Y-103772352D01*
X168348790Y-103819971D01*
X168348790Y-103867590D01*
X168348790Y-104105685D02*
X168324981Y-104058066D01*
X168301171Y-104034257D01*
X168253552Y-104010447D01*
X168110695Y-104010447D01*
X168063076Y-104034257D01*
X168039267Y-104058066D01*
X168015457Y-104105685D01*
X168015457Y-104177114D01*
X168039267Y-104224733D01*
X168063076Y-104248542D01*
X168110695Y-104272352D01*
X168253552Y-104272352D01*
X168301171Y-104248542D01*
X168324981Y-104224733D01*
X168348790Y-104177114D01*
X168348790Y-104105685D01*
X168015457Y-104486638D02*
X168348790Y-104486638D01*
X168063076Y-104486638D02*
X168039267Y-104510447D01*
X168015457Y-104558066D01*
X168015457Y-104629495D01*
X168039267Y-104677114D01*
X168086886Y-104700923D01*
X168348790Y-104700923D01*
D11*
X166526266Y-120927067D02*
X166526266Y-121427067D01*
X166559600Y-121527067D01*
X166626266Y-121593733D01*
X166726266Y-121627067D01*
X166792933Y-121627067D01*
X166292933Y-120927067D02*
X165892933Y-120927067D01*
X166092933Y-121627067D02*
X166092933Y-120927067D01*
X165692934Y-121427067D02*
X165359600Y-121427067D01*
X165759600Y-121627067D02*
X165526267Y-120927067D01*
X165292934Y-121627067D01*
X164692934Y-120960400D02*
X164759600Y-120927067D01*
X164859600Y-120927067D01*
X164959600Y-120960400D01*
X165026267Y-121027067D01*
X165059600Y-121093733D01*
X165092934Y-121227067D01*
X165092934Y-121327067D01*
X165059600Y-121460400D01*
X165026267Y-121527067D01*
X164959600Y-121593733D01*
X164859600Y-121627067D01*
X164792934Y-121627067D01*
X164692934Y-121593733D01*
X164659600Y-121560400D01*
X164659600Y-121327067D01*
X164792934Y-121327067D01*
D13*
X160720076Y-126007829D02*
X160720076Y-125912591D01*
X160520076Y-125912591D01*
X160615314Y-126074496D02*
X160615314Y-126141163D01*
X160720076Y-126169734D02*
X160720076Y-126074496D01*
X160520076Y-126074496D01*
X160520076Y-126169734D01*
X160720076Y-126255448D02*
X160520076Y-126255448D01*
X160520076Y-126303067D01*
X160529600Y-126331639D01*
X160548648Y-126350686D01*
X160567695Y-126360210D01*
X160605790Y-126369734D01*
X160634362Y-126369734D01*
X160672457Y-126360210D01*
X160691505Y-126350686D01*
X160710552Y-126331639D01*
X160720076Y-126303067D01*
X160720076Y-126255448D01*
D11*
X166592933Y-130198067D02*
X166592933Y-130764733D01*
X166559600Y-130831400D01*
X166526267Y-130864733D01*
X166459600Y-130898067D01*
X166326267Y-130898067D01*
X166259600Y-130864733D01*
X166226267Y-130831400D01*
X166192933Y-130764733D01*
X166192933Y-130198067D01*
X165892934Y-130864733D02*
X165792934Y-130898067D01*
X165626267Y-130898067D01*
X165559600Y-130864733D01*
X165526267Y-130831400D01*
X165492934Y-130764733D01*
X165492934Y-130698067D01*
X165526267Y-130631400D01*
X165559600Y-130598067D01*
X165626267Y-130564733D01*
X165759600Y-130531400D01*
X165826267Y-130498067D01*
X165859600Y-130464733D01*
X165892934Y-130398067D01*
X165892934Y-130331400D01*
X165859600Y-130264733D01*
X165826267Y-130231400D01*
X165759600Y-130198067D01*
X165592934Y-130198067D01*
X165492934Y-130231400D01*
X164959600Y-130531400D02*
X164859600Y-130564733D01*
X164826267Y-130598067D01*
X164792933Y-130664733D01*
X164792933Y-130764733D01*
X164826267Y-130831400D01*
X164859600Y-130864733D01*
X164926267Y-130898067D01*
X165192933Y-130898067D01*
X165192933Y-130198067D01*
X164959600Y-130198067D01*
X164892933Y-130231400D01*
X164859600Y-130264733D01*
X164826267Y-130331400D01*
X164826267Y-130398067D01*
X164859600Y-130464733D01*
X164892933Y-130498067D01*
X164959600Y-130531400D01*
X165192933Y-130531400D01*
M02*
