G04 #@! TF.FileFunction,Legend,Top*
%FSLAX46Y46*%
G04 Gerber Fmt 4.6, Leading zero omitted, Abs format (unit mm)*
G04 Created by KiCad (PCBNEW 4.0.7-e2-6376~58~ubuntu16.04.1) date Mon Dec 18 21:23:22 2017*
%MOMM*%
%LPD*%
G01*
G04 APERTURE LIST*
%ADD10C,0.100000*%
%ADD11C,0.158750*%
%ADD12C,0.120000*%
G04 APERTURE END LIST*
D10*
D11*
X152284037Y-132294086D02*
X151981656Y-132505753D01*
X152284037Y-132656944D02*
X151649037Y-132656944D01*
X151649037Y-132415039D01*
X151679275Y-132354563D01*
X151709513Y-132324324D01*
X151769989Y-132294086D01*
X151860704Y-132294086D01*
X151921180Y-132324324D01*
X151951418Y-132354563D01*
X151981656Y-132415039D01*
X151981656Y-132656944D01*
X152253799Y-131780039D02*
X152284037Y-131840515D01*
X152284037Y-131961467D01*
X152253799Y-132021944D01*
X152193323Y-132052182D01*
X151951418Y-132052182D01*
X151890942Y-132021944D01*
X151860704Y-131961467D01*
X151860704Y-131840515D01*
X151890942Y-131780039D01*
X151951418Y-131749801D01*
X152011894Y-131749801D01*
X152072370Y-132052182D01*
X151860704Y-131538134D02*
X152284037Y-131386943D01*
X151860704Y-131235753D01*
X152284037Y-130993848D02*
X151860704Y-130993848D01*
X151649037Y-130993848D02*
X151679275Y-131024086D01*
X151709513Y-130993848D01*
X151679275Y-130963609D01*
X151649037Y-130993848D01*
X151709513Y-130993848D01*
X152253799Y-130721705D02*
X152284037Y-130661228D01*
X152284037Y-130540276D01*
X152253799Y-130479800D01*
X152193323Y-130449562D01*
X152163085Y-130449562D01*
X152102608Y-130479800D01*
X152072370Y-130540276D01*
X152072370Y-130630990D01*
X152042132Y-130691467D01*
X151981656Y-130721705D01*
X151951418Y-130721705D01*
X151890942Y-130691467D01*
X151860704Y-130630990D01*
X151860704Y-130540276D01*
X151890942Y-130479800D01*
X152284037Y-130177419D02*
X151860704Y-130177419D01*
X151649037Y-130177419D02*
X151679275Y-130207657D01*
X151709513Y-130177419D01*
X151679275Y-130147180D01*
X151649037Y-130177419D01*
X151709513Y-130177419D01*
X152284037Y-129784323D02*
X152253799Y-129844799D01*
X152223561Y-129875038D01*
X152163085Y-129905276D01*
X151981656Y-129905276D01*
X151921180Y-129875038D01*
X151890942Y-129844799D01*
X151860704Y-129784323D01*
X151860704Y-129693609D01*
X151890942Y-129633133D01*
X151921180Y-129602895D01*
X151981656Y-129572657D01*
X152163085Y-129572657D01*
X152223561Y-129602895D01*
X152253799Y-129633133D01*
X152284037Y-129693609D01*
X152284037Y-129784323D01*
X151860704Y-129300514D02*
X152284037Y-129300514D01*
X151921180Y-129300514D02*
X151890942Y-129270275D01*
X151860704Y-129209799D01*
X151860704Y-129119085D01*
X151890942Y-129058609D01*
X151951418Y-129028371D01*
X152284037Y-129028371D01*
X152284037Y-127909560D02*
X152284037Y-128272418D01*
X152284037Y-128090989D02*
X151649037Y-128090989D01*
X151739751Y-128151465D01*
X151800227Y-128211941D01*
X151830465Y-128272418D01*
X152223561Y-127637418D02*
X152253799Y-127607179D01*
X152284037Y-127637418D01*
X152253799Y-127667656D01*
X152223561Y-127637418D01*
X152284037Y-127637418D01*
X151649037Y-127214084D02*
X151649037Y-127153608D01*
X151679275Y-127093132D01*
X151709513Y-127062894D01*
X151769989Y-127032656D01*
X151890942Y-127002417D01*
X152042132Y-127002417D01*
X152163085Y-127032656D01*
X152223561Y-127062894D01*
X152253799Y-127093132D01*
X152284037Y-127153608D01*
X152284037Y-127214084D01*
X152253799Y-127274560D01*
X152223561Y-127304798D01*
X152163085Y-127335037D01*
X152042132Y-127365275D01*
X151890942Y-127365275D01*
X151769989Y-127335037D01*
X151709513Y-127304798D01*
X151679275Y-127274560D01*
X151649037Y-127214084D01*
X153395287Y-132445276D02*
X153395287Y-132808134D01*
X153395287Y-132626705D02*
X152760287Y-132626705D01*
X152851001Y-132687181D01*
X152911477Y-132747657D01*
X152941715Y-132808134D01*
X152820763Y-132203372D02*
X152790525Y-132173134D01*
X152760287Y-132112657D01*
X152760287Y-131961467D01*
X152790525Y-131900991D01*
X152820763Y-131870753D01*
X152881239Y-131840514D01*
X152941715Y-131840514D01*
X153032430Y-131870753D01*
X153395287Y-132233610D01*
X153395287Y-131840514D01*
X152730049Y-131114800D02*
X153546477Y-131659086D01*
X153395287Y-130570514D02*
X153395287Y-130933372D01*
X153395287Y-130751943D02*
X152760287Y-130751943D01*
X152851001Y-130812419D01*
X152911477Y-130872895D01*
X152941715Y-130933372D01*
X152760287Y-130358848D02*
X152760287Y-129935514D01*
X153395287Y-130207657D01*
X152730049Y-129240038D02*
X153546477Y-129784324D01*
X152820763Y-129058610D02*
X152790525Y-129028372D01*
X152760287Y-128967895D01*
X152760287Y-128816705D01*
X152790525Y-128756229D01*
X152820763Y-128725991D01*
X152881239Y-128695752D01*
X152941715Y-128695752D01*
X153032430Y-128725991D01*
X153395287Y-129088848D01*
X153395287Y-128695752D01*
X152760287Y-128302657D02*
X152760287Y-128242181D01*
X152790525Y-128181705D01*
X152820763Y-128151467D01*
X152881239Y-128121229D01*
X153002192Y-128090990D01*
X153153382Y-128090990D01*
X153274335Y-128121229D01*
X153334811Y-128151467D01*
X153365049Y-128181705D01*
X153395287Y-128242181D01*
X153395287Y-128302657D01*
X153365049Y-128363133D01*
X153334811Y-128393371D01*
X153274335Y-128423610D01*
X153153382Y-128453848D01*
X153002192Y-128453848D01*
X152881239Y-128423610D01*
X152820763Y-128393371D01*
X152790525Y-128363133D01*
X152760287Y-128302657D01*
X153395287Y-127486228D02*
X153395287Y-127849086D01*
X153395287Y-127667657D02*
X152760287Y-127667657D01*
X152851001Y-127728133D01*
X152911477Y-127788609D01*
X152941715Y-127849086D01*
X152760287Y-127274562D02*
X152760287Y-126851228D01*
X153395287Y-127123371D01*
X150147262Y-132216072D02*
X149844881Y-132427739D01*
X150147262Y-132578930D02*
X149512262Y-132578930D01*
X149512262Y-132337025D01*
X149542500Y-132276549D01*
X149572738Y-132246310D01*
X149633214Y-132216072D01*
X149723929Y-132216072D01*
X149784405Y-132246310D01*
X149814643Y-132276549D01*
X149844881Y-132337025D01*
X149844881Y-132578930D01*
X150147262Y-131943930D02*
X149723929Y-131943930D01*
X149512262Y-131943930D02*
X149542500Y-131974168D01*
X149572738Y-131943930D01*
X149542500Y-131913691D01*
X149512262Y-131943930D01*
X149572738Y-131943930D01*
X150117024Y-131369406D02*
X150147262Y-131429882D01*
X150147262Y-131550834D01*
X150117024Y-131611310D01*
X150086786Y-131641549D01*
X150026310Y-131671787D01*
X149844881Y-131671787D01*
X149784405Y-131641549D01*
X149754167Y-131611310D01*
X149723929Y-131550834D01*
X149723929Y-131429882D01*
X149754167Y-131369406D01*
X150147262Y-131097263D02*
X149512262Y-131097263D01*
X150147262Y-130825120D02*
X149814643Y-130825120D01*
X149754167Y-130855358D01*
X149723929Y-130915834D01*
X149723929Y-131006548D01*
X149754167Y-131067024D01*
X149784405Y-131097263D01*
X150147262Y-130250596D02*
X149814643Y-130250596D01*
X149754167Y-130280834D01*
X149723929Y-130341310D01*
X149723929Y-130462262D01*
X149754167Y-130522739D01*
X150117024Y-130250596D02*
X150147262Y-130311072D01*
X150147262Y-130462262D01*
X150117024Y-130522739D01*
X150056548Y-130552977D01*
X149996071Y-130552977D01*
X149935595Y-130522739D01*
X149905357Y-130462262D01*
X149905357Y-130311072D01*
X149875119Y-130250596D01*
X150147262Y-129948215D02*
X149723929Y-129948215D01*
X149844881Y-129948215D02*
X149784405Y-129917976D01*
X149754167Y-129887738D01*
X149723929Y-129827262D01*
X149723929Y-129766786D01*
X150147262Y-129282977D02*
X149512262Y-129282977D01*
X150117024Y-129282977D02*
X150147262Y-129343453D01*
X150147262Y-129464405D01*
X150117024Y-129524881D01*
X150086786Y-129555120D01*
X150026310Y-129585358D01*
X149844881Y-129585358D01*
X149784405Y-129555120D01*
X149754167Y-129524881D01*
X149723929Y-129464405D01*
X149723929Y-129343453D01*
X149754167Y-129282977D01*
X150147262Y-128496786D02*
X149512262Y-128496786D01*
X149965833Y-128285119D01*
X149512262Y-128073452D01*
X150147262Y-128073452D01*
X150117024Y-127529167D02*
X150147262Y-127589643D01*
X150147262Y-127710595D01*
X150117024Y-127771072D01*
X150056548Y-127801310D01*
X149814643Y-127801310D01*
X149754167Y-127771072D01*
X149723929Y-127710595D01*
X149723929Y-127589643D01*
X149754167Y-127529167D01*
X149814643Y-127498929D01*
X149875119Y-127498929D01*
X149935595Y-127801310D01*
X150147262Y-127226786D02*
X149723929Y-127226786D01*
X149784405Y-127226786D02*
X149754167Y-127196547D01*
X149723929Y-127136071D01*
X149723929Y-127045357D01*
X149754167Y-126984881D01*
X149814643Y-126954643D01*
X150147262Y-126954643D01*
X149814643Y-126954643D02*
X149754167Y-126924405D01*
X149723929Y-126863928D01*
X149723929Y-126773214D01*
X149754167Y-126712738D01*
X149814643Y-126682500D01*
X150147262Y-126682500D01*
X150147262Y-126289404D02*
X150117024Y-126349880D01*
X150086786Y-126380119D01*
X150026310Y-126410357D01*
X149844881Y-126410357D01*
X149784405Y-126380119D01*
X149754167Y-126349880D01*
X149723929Y-126289404D01*
X149723929Y-126198690D01*
X149754167Y-126138214D01*
X149784405Y-126107976D01*
X149844881Y-126077738D01*
X150026310Y-126077738D01*
X150086786Y-126107976D01*
X150117024Y-126138214D01*
X150147262Y-126198690D01*
X150147262Y-126289404D01*
X150147262Y-125805595D02*
X149723929Y-125805595D01*
X149844881Y-125805595D02*
X149784405Y-125775356D01*
X149754167Y-125745118D01*
X149723929Y-125684642D01*
X149723929Y-125624166D01*
X149723929Y-125472976D02*
X150147262Y-125321785D01*
X149723929Y-125170595D02*
X150147262Y-125321785D01*
X150298452Y-125382261D01*
X150328690Y-125412500D01*
X150358929Y-125472976D01*
D12*
X164362000Y-107188000D02*
G75*
G03X164362000Y-107188000I-2310000J0D01*
G01*
X162052000Y-109498000D02*
X162052000Y-110768000D01*
X171016800Y-107162600D02*
G75*
G03X171016800Y-107162600I-2310000J0D01*
G01*
X168706800Y-109472600D02*
X168706800Y-110742600D01*
X168189800Y-127009600D02*
X168189800Y-128209600D01*
X166429800Y-128209600D02*
X166429800Y-127009600D01*
X168139000Y-119034000D02*
X168139000Y-120234000D01*
X166379000Y-120234000D02*
X166379000Y-119034000D01*
X164710000Y-119034000D02*
X164710000Y-120234000D01*
X162950000Y-120234000D02*
X162950000Y-119034000D01*
X164760800Y-127009600D02*
X164760800Y-128209600D01*
X163000800Y-128209600D02*
X163000800Y-127009600D01*
X149038000Y-123758000D02*
X154238000Y-123758000D01*
X149038000Y-100838000D02*
X149038000Y-123758000D01*
X154238000Y-98238000D02*
X154238000Y-123758000D01*
X149038000Y-100838000D02*
X151638000Y-100838000D01*
X151638000Y-100838000D02*
X151638000Y-98238000D01*
X151638000Y-98238000D02*
X154238000Y-98238000D01*
X149038000Y-99568000D02*
X149038000Y-98238000D01*
X149038000Y-98238000D02*
X150368000Y-98238000D01*
X181035000Y-106740000D02*
X181035000Y-104080000D01*
X180975000Y-106740000D02*
X181035000Y-106740000D01*
X180975000Y-104080000D02*
X181035000Y-104080000D01*
X180975000Y-106740000D02*
X180975000Y-104080000D01*
X179705000Y-106740000D02*
X178375000Y-106740000D01*
X178375000Y-106740000D02*
X178375000Y-105410000D01*
X181035000Y-121345000D02*
X181035000Y-118685000D01*
X180975000Y-121345000D02*
X181035000Y-121345000D01*
X180975000Y-118685000D02*
X181035000Y-118685000D01*
X180975000Y-121345000D02*
X180975000Y-118685000D01*
X179705000Y-121345000D02*
X178375000Y-121345000D01*
X178375000Y-121345000D02*
X178375000Y-120015000D01*
X142815000Y-104715000D02*
X142815000Y-107375000D01*
X142875000Y-104715000D02*
X142815000Y-104715000D01*
X142875000Y-107375000D02*
X142815000Y-107375000D01*
X142875000Y-104715000D02*
X142875000Y-107375000D01*
X144145000Y-104715000D02*
X145475000Y-104715000D01*
X145475000Y-104715000D02*
X145475000Y-106045000D01*
X150555000Y-88840000D02*
X147895000Y-88840000D01*
X150555000Y-88900000D02*
X150555000Y-88840000D01*
X147895000Y-88900000D02*
X147895000Y-88840000D01*
X150555000Y-88900000D02*
X147895000Y-88900000D01*
X150555000Y-90170000D02*
X150555000Y-91500000D01*
X150555000Y-91500000D02*
X149225000Y-91500000D01*
X159445000Y-88840000D02*
X156785000Y-88840000D01*
X159445000Y-88900000D02*
X159445000Y-88840000D01*
X156785000Y-88900000D02*
X156785000Y-88840000D01*
X159445000Y-88900000D02*
X156785000Y-88900000D01*
X159445000Y-90170000D02*
X159445000Y-91500000D01*
X159445000Y-91500000D02*
X158115000Y-91500000D01*
X181035000Y-130235000D02*
X181035000Y-127575000D01*
X180975000Y-130235000D02*
X181035000Y-130235000D01*
X180975000Y-127575000D02*
X181035000Y-127575000D01*
X180975000Y-130235000D02*
X180975000Y-127575000D01*
X179705000Y-130235000D02*
X178375000Y-130235000D01*
X178375000Y-130235000D02*
X178375000Y-128905000D01*
X181035000Y-93405000D02*
X181035000Y-90745000D01*
X180975000Y-93405000D02*
X181035000Y-93405000D01*
X180975000Y-90745000D02*
X181035000Y-90745000D01*
X180975000Y-93405000D02*
X180975000Y-90745000D01*
X179705000Y-93405000D02*
X178375000Y-93405000D01*
X178375000Y-93405000D02*
X178375000Y-92075000D01*
X181035000Y-113725000D02*
X181035000Y-111065000D01*
X180975000Y-113725000D02*
X181035000Y-113725000D01*
X180975000Y-111065000D02*
X181035000Y-111065000D01*
X180975000Y-113725000D02*
X180975000Y-111065000D01*
X179705000Y-113725000D02*
X178375000Y-113725000D01*
X178375000Y-113725000D02*
X178375000Y-112395000D01*
X175955000Y-88840000D02*
X173295000Y-88840000D01*
X175955000Y-88900000D02*
X175955000Y-88840000D01*
X173295000Y-88900000D02*
X173295000Y-88840000D01*
X175955000Y-88900000D02*
X173295000Y-88900000D01*
X175955000Y-90170000D02*
X175955000Y-91500000D01*
X175955000Y-91500000D02*
X174625000Y-91500000D01*
X168335000Y-88840000D02*
X165675000Y-88840000D01*
X168335000Y-88900000D02*
X168335000Y-88840000D01*
X165675000Y-88900000D02*
X165675000Y-88840000D01*
X168335000Y-88900000D02*
X165675000Y-88900000D01*
X168335000Y-90170000D02*
X168335000Y-91500000D01*
X168335000Y-91500000D02*
X167005000Y-91500000D01*
X142815000Y-119320000D02*
X142815000Y-121980000D01*
X142875000Y-119320000D02*
X142815000Y-119320000D01*
X142875000Y-121980000D02*
X142815000Y-121980000D01*
X142875000Y-119320000D02*
X142875000Y-121980000D01*
X144145000Y-119320000D02*
X145475000Y-119320000D01*
X145475000Y-119320000D02*
X145475000Y-120650000D01*
X158055000Y-137855000D02*
X160715000Y-137855000D01*
X158055000Y-137795000D02*
X158055000Y-137855000D01*
X160715000Y-137795000D02*
X160715000Y-137855000D01*
X158055000Y-137795000D02*
X160715000Y-137795000D01*
X158055000Y-136525000D02*
X158055000Y-135195000D01*
X158055000Y-135195000D02*
X159385000Y-135195000D01*
X142815000Y-111700000D02*
X142815000Y-114360000D01*
X142875000Y-111700000D02*
X142815000Y-111700000D01*
X142875000Y-114360000D02*
X142815000Y-114360000D01*
X142875000Y-111700000D02*
X142875000Y-114360000D01*
X144145000Y-111700000D02*
X145475000Y-111700000D01*
X145475000Y-111700000D02*
X145475000Y-113030000D01*
X169485000Y-137855000D02*
X172145000Y-137855000D01*
X169485000Y-137795000D02*
X169485000Y-137855000D01*
X172145000Y-137795000D02*
X172145000Y-137855000D01*
X169485000Y-137795000D02*
X172145000Y-137795000D01*
X169485000Y-136525000D02*
X169485000Y-135195000D01*
X169485000Y-135195000D02*
X170815000Y-135195000D01*
X181035000Y-99755000D02*
X181035000Y-97095000D01*
X180975000Y-99755000D02*
X181035000Y-99755000D01*
X180975000Y-97095000D02*
X181035000Y-97095000D01*
X180975000Y-99755000D02*
X180975000Y-97095000D01*
X179705000Y-99755000D02*
X178375000Y-99755000D01*
X178375000Y-99755000D02*
X178375000Y-98425000D01*
M02*
