G04 #@! TF.FileFunction,Copper,L1,Top,Signal*
%FSLAX46Y46*%
G04 Gerber Fmt 4.6, Leading zero omitted, Abs format (unit mm)*
G04 Created by KiCad (PCBNEW 4.0.7-e2-6376~58~ubuntu16.04.1) date Mon Dec 18 21:23:22 2017*
%MOMM*%
%LPD*%
G01*
G04 APERTURE LIST*
%ADD10C,0.100000*%
%ADD11C,0.300000*%
%ADD12C,1.524000*%
%ADD13C,2.400000*%
%ADD14O,2.400000X2.400000*%
%ADD15R,1.300000X1.500000*%
%ADD16R,1.700000X1.700000*%
%ADD17O,1.700000X1.700000*%
%ADD18C,0.685800*%
%ADD19C,0.609600*%
%ADD20C,0.304800*%
G04 APERTURE END LIST*
D10*
X163525248Y-130129790D02*
X163810962Y-130129790D01*
X163668105Y-130629790D02*
X163668105Y-130129790D01*
X163930010Y-130129790D02*
X164263343Y-130629790D01*
X164263343Y-130129790D02*
X163930010Y-130629790D01*
X167226467Y-130655190D02*
X167059800Y-130417095D01*
X166940753Y-130655190D02*
X166940753Y-130155190D01*
X167131229Y-130155190D01*
X167178848Y-130179000D01*
X167202657Y-130202810D01*
X167226467Y-130250429D01*
X167226467Y-130321857D01*
X167202657Y-130369476D01*
X167178848Y-130393286D01*
X167131229Y-130417095D01*
X166940753Y-130417095D01*
X167393134Y-130155190D02*
X167726467Y-130655190D01*
X167726467Y-130155190D02*
X167393134Y-130655190D01*
X163018886Y-122654190D02*
X163018886Y-122154190D01*
X163185552Y-122511333D01*
X163352219Y-122154190D01*
X163352219Y-122654190D01*
X163590315Y-122654190D02*
X163590315Y-122154190D01*
X163804600Y-122630381D02*
X163876029Y-122654190D01*
X163995076Y-122654190D01*
X164042695Y-122630381D01*
X164066505Y-122606571D01*
X164090314Y-122558952D01*
X164090314Y-122511333D01*
X164066505Y-122463714D01*
X164042695Y-122439905D01*
X163995076Y-122416095D01*
X163899838Y-122392286D01*
X163852219Y-122368476D01*
X163828410Y-122344667D01*
X163804600Y-122297048D01*
X163804600Y-122249429D01*
X163828410Y-122201810D01*
X163852219Y-122178000D01*
X163899838Y-122154190D01*
X164018886Y-122154190D01*
X164090314Y-122178000D01*
X164399838Y-122154190D02*
X164495076Y-122154190D01*
X164542695Y-122178000D01*
X164590314Y-122225619D01*
X164614123Y-122320857D01*
X164614123Y-122487524D01*
X164590314Y-122582762D01*
X164542695Y-122630381D01*
X164495076Y-122654190D01*
X164399838Y-122654190D01*
X164352219Y-122630381D01*
X164304600Y-122582762D01*
X164280790Y-122487524D01*
X164280790Y-122320857D01*
X164304600Y-122225619D01*
X164352219Y-122178000D01*
X164399838Y-122154190D01*
X166498686Y-122679590D02*
X166498686Y-122179590D01*
X166665352Y-122536733D01*
X166832019Y-122179590D01*
X166832019Y-122679590D01*
X167165353Y-122179590D02*
X167260591Y-122179590D01*
X167308210Y-122203400D01*
X167355829Y-122251019D01*
X167379638Y-122346257D01*
X167379638Y-122512924D01*
X167355829Y-122608162D01*
X167308210Y-122655781D01*
X167260591Y-122679590D01*
X167165353Y-122679590D01*
X167117734Y-122655781D01*
X167070115Y-122608162D01*
X167046305Y-122512924D01*
X167046305Y-122346257D01*
X167070115Y-122251019D01*
X167117734Y-122203400D01*
X167165353Y-122179590D01*
X167570115Y-122655781D02*
X167641544Y-122679590D01*
X167760591Y-122679590D01*
X167808210Y-122655781D01*
X167832020Y-122631971D01*
X167855829Y-122584352D01*
X167855829Y-122536733D01*
X167832020Y-122489114D01*
X167808210Y-122465305D01*
X167760591Y-122441495D01*
X167665353Y-122417686D01*
X167617734Y-122393876D01*
X167593925Y-122370067D01*
X167570115Y-122322448D01*
X167570115Y-122274829D01*
X167593925Y-122227210D01*
X167617734Y-122203400D01*
X167665353Y-122179590D01*
X167784401Y-122179590D01*
X167855829Y-122203400D01*
X168070115Y-122679590D02*
X168070115Y-122179590D01*
X167032858Y-114502381D02*
X167104287Y-114526190D01*
X167223334Y-114526190D01*
X167270953Y-114502381D01*
X167294763Y-114478571D01*
X167318572Y-114430952D01*
X167318572Y-114383333D01*
X167294763Y-114335714D01*
X167270953Y-114311905D01*
X167223334Y-114288095D01*
X167128096Y-114264286D01*
X167080477Y-114240476D01*
X167056668Y-114216667D01*
X167032858Y-114169048D01*
X167032858Y-114121429D01*
X167056668Y-114073810D01*
X167080477Y-114050000D01*
X167128096Y-114026190D01*
X167247144Y-114026190D01*
X167318572Y-114050000D01*
X167532858Y-114526190D02*
X167532858Y-114026190D01*
X167651905Y-114026190D01*
X167723334Y-114050000D01*
X167770953Y-114097619D01*
X167794762Y-114145238D01*
X167818572Y-114240476D01*
X167818572Y-114311905D01*
X167794762Y-114407143D01*
X167770953Y-114454762D01*
X167723334Y-114502381D01*
X167651905Y-114526190D01*
X167532858Y-114526190D01*
X168009048Y-114383333D02*
X168247143Y-114383333D01*
X167961429Y-114526190D02*
X168128096Y-114026190D01*
X168294762Y-114526190D01*
X162980762Y-114502381D02*
X163052191Y-114526190D01*
X163171238Y-114526190D01*
X163218857Y-114502381D01*
X163242667Y-114478571D01*
X163266476Y-114430952D01*
X163266476Y-114383333D01*
X163242667Y-114335714D01*
X163218857Y-114311905D01*
X163171238Y-114288095D01*
X163076000Y-114264286D01*
X163028381Y-114240476D01*
X163004572Y-114216667D01*
X162980762Y-114169048D01*
X162980762Y-114121429D01*
X163004572Y-114073810D01*
X163028381Y-114050000D01*
X163076000Y-114026190D01*
X163195048Y-114026190D01*
X163266476Y-114050000D01*
X163766476Y-114478571D02*
X163742666Y-114502381D01*
X163671238Y-114526190D01*
X163623619Y-114526190D01*
X163552190Y-114502381D01*
X163504571Y-114454762D01*
X163480762Y-114407143D01*
X163456952Y-114311905D01*
X163456952Y-114240476D01*
X163480762Y-114145238D01*
X163504571Y-114097619D01*
X163552190Y-114050000D01*
X163623619Y-114026190D01*
X163671238Y-114026190D01*
X163742666Y-114050000D01*
X163766476Y-114073810D01*
X164218857Y-114526190D02*
X163980762Y-114526190D01*
X163980762Y-114026190D01*
D11*
X164321515Y-103929571D02*
X164321515Y-102429571D01*
X164964372Y-102572429D02*
X165035801Y-102501000D01*
X165178658Y-102429571D01*
X165535801Y-102429571D01*
X165678658Y-102501000D01*
X165750087Y-102572429D01*
X165821515Y-102715286D01*
X165821515Y-102858143D01*
X165750087Y-103072429D01*
X164892944Y-103929571D01*
X165821515Y-103929571D01*
X167321515Y-103786714D02*
X167250086Y-103858143D01*
X167035800Y-103929571D01*
X166892943Y-103929571D01*
X166678658Y-103858143D01*
X166535800Y-103715286D01*
X166464372Y-103572429D01*
X166392943Y-103286714D01*
X166392943Y-103072429D01*
X166464372Y-102786714D01*
X166535800Y-102643857D01*
X166678658Y-102501000D01*
X166892943Y-102429571D01*
X167035800Y-102429571D01*
X167250086Y-102501000D01*
X167321515Y-102572429D01*
X162348458Y-123384571D02*
X162348458Y-124598857D01*
X162419886Y-124741714D01*
X162491315Y-124813143D01*
X162634172Y-124884571D01*
X162919886Y-124884571D01*
X163062744Y-124813143D01*
X163134172Y-124741714D01*
X163205601Y-124598857D01*
X163205601Y-123384571D01*
X163848458Y-124813143D02*
X164062744Y-124884571D01*
X164419887Y-124884571D01*
X164562744Y-124813143D01*
X164634173Y-124741714D01*
X164705601Y-124598857D01*
X164705601Y-124456000D01*
X164634173Y-124313143D01*
X164562744Y-124241714D01*
X164419887Y-124170286D01*
X164134173Y-124098857D01*
X163991315Y-124027429D01*
X163919887Y-123956000D01*
X163848458Y-123813143D01*
X163848458Y-123670286D01*
X163919887Y-123527429D01*
X163991315Y-123456000D01*
X164134173Y-123384571D01*
X164491315Y-123384571D01*
X164705601Y-123456000D01*
X165277029Y-124456000D02*
X165991315Y-124456000D01*
X165134172Y-124884571D02*
X165634172Y-123384571D01*
X166134172Y-124884571D01*
X167491315Y-124884571D02*
X166991315Y-124170286D01*
X166634172Y-124884571D02*
X166634172Y-123384571D01*
X167205600Y-123384571D01*
X167348458Y-123456000D01*
X167419886Y-123527429D01*
X167491315Y-123670286D01*
X167491315Y-123884571D01*
X167419886Y-124027429D01*
X167348458Y-124098857D01*
X167205600Y-124170286D01*
X166634172Y-124170286D01*
X167919886Y-123384571D02*
X168777029Y-123384571D01*
X168348458Y-124884571D02*
X168348458Y-123384571D01*
X163996086Y-116761343D02*
X164210372Y-116832771D01*
X164567515Y-116832771D01*
X164710372Y-116761343D01*
X164781801Y-116689914D01*
X164853229Y-116547057D01*
X164853229Y-116404200D01*
X164781801Y-116261343D01*
X164710372Y-116189914D01*
X164567515Y-116118486D01*
X164281801Y-116047057D01*
X164138943Y-115975629D01*
X164067515Y-115904200D01*
X163996086Y-115761343D01*
X163996086Y-115618486D01*
X164067515Y-115475629D01*
X164138943Y-115404200D01*
X164281801Y-115332771D01*
X164638943Y-115332771D01*
X164853229Y-115404200D01*
X165496086Y-116832771D02*
X165496086Y-115332771D01*
X166067514Y-115332771D01*
X166210372Y-115404200D01*
X166281800Y-115475629D01*
X166353229Y-115618486D01*
X166353229Y-115832771D01*
X166281800Y-115975629D01*
X166210372Y-116047057D01*
X166067514Y-116118486D01*
X165496086Y-116118486D01*
X166996086Y-116832771D02*
X166996086Y-115332771D01*
D12*
X158102684Y-131216400D03*
X158089600Y-128676400D03*
X158089600Y-126136400D03*
X158102684Y-123597358D03*
X158102684Y-121057358D03*
X158102684Y-118517358D03*
X158102684Y-115977358D03*
X158102684Y-113437358D03*
X158102684Y-110897358D03*
X158102684Y-108357358D03*
X158102684Y-105817358D03*
X158102684Y-103277358D03*
X158102684Y-100737358D03*
X158102684Y-98197358D03*
X158102684Y-95657358D03*
X173342684Y-95657358D03*
X173342684Y-98197358D03*
X173342684Y-100737358D03*
X173342684Y-103277358D03*
X173342684Y-105817358D03*
X173342684Y-108357358D03*
X173342684Y-110897358D03*
X173342684Y-113437358D03*
X173342684Y-115977358D03*
X173342684Y-118517358D03*
X173342684Y-121057358D03*
X173342684Y-123597358D03*
X173342684Y-126137358D03*
X173342684Y-128677358D03*
X173342684Y-131217358D03*
X160642684Y-98197358D03*
X160642684Y-95657358D03*
X163182684Y-98197358D03*
X163182684Y-95657358D03*
X165722684Y-98197358D03*
X165722684Y-95657358D03*
X168262684Y-98197358D03*
X168262684Y-95657358D03*
X170802684Y-98197358D03*
X170802684Y-95657358D03*
X160642684Y-123597358D03*
X160642684Y-103277358D03*
X160642684Y-100737358D03*
X170802684Y-100737358D03*
D13*
X162052000Y-107188000D03*
D14*
X162052000Y-112268000D03*
D13*
X168706800Y-107162600D03*
D14*
X168706800Y-112242600D03*
D15*
X167309800Y-128959600D03*
X167309800Y-126259600D03*
X167259000Y-120984000D03*
X167259000Y-118284000D03*
X163830000Y-120984000D03*
X163830000Y-118284000D03*
X163880800Y-128959600D03*
X163880800Y-126259600D03*
D16*
X150368000Y-99568000D03*
D17*
X150368000Y-102108000D03*
X152908000Y-102108000D03*
X150368000Y-104648000D03*
X152908000Y-104648000D03*
X150368000Y-107188000D03*
X152908000Y-107188000D03*
X152908000Y-109728000D03*
X152908000Y-112268000D03*
X150368000Y-114808000D03*
X152908000Y-114808000D03*
X150368000Y-117348000D03*
X152908000Y-117348000D03*
X150368000Y-119888000D03*
X152908000Y-119888000D03*
X150368000Y-122428000D03*
D16*
X179705000Y-105410000D03*
X179705000Y-120015000D03*
X144145000Y-106045000D03*
X149225000Y-90170000D03*
X158115000Y-90170000D03*
X179705000Y-128905000D03*
X179705000Y-92075000D03*
X179705000Y-112395000D03*
X174625000Y-90170000D03*
X167005000Y-90170000D03*
X144145000Y-120650000D03*
X159385000Y-136525000D03*
X144145000Y-113030000D03*
X170815000Y-136525000D03*
X179705000Y-98425000D03*
D18*
X147828000Y-109347000D03*
X150241000Y-111760000D03*
X147828000Y-112903000D03*
X149098000Y-125222000D03*
X151257000Y-125222000D03*
X156464000Y-114935000D03*
X170180000Y-132080000D03*
X162560000Y-132080000D03*
X158750000Y-96901000D03*
X154559000Y-96520000D03*
X151003000Y-95758000D03*
X151155400Y-129311400D03*
X151993600Y-121818400D03*
X155829000Y-110871000D03*
X159486600Y-106172000D03*
X151638000Y-103301800D03*
X151231600Y-108864400D03*
X154305000Y-131749800D03*
D19*
X144145000Y-106045000D02*
X144526000Y-106045000D01*
X144526000Y-106045000D02*
X147828000Y-109347000D01*
X150241000Y-111760000D02*
X150749000Y-112268000D01*
X150749000Y-112268000D02*
X152908000Y-112268000D01*
X174498000Y-109626400D02*
X174498000Y-109677200D01*
X171805600Y-109626400D02*
X174498000Y-109626400D01*
X169341800Y-107162600D02*
X171805600Y-109626400D01*
X175234600Y-126785442D02*
X173342684Y-128677358D01*
X175234600Y-110413800D02*
X175234600Y-126785442D01*
X174498000Y-109677200D02*
X175234600Y-110413800D01*
X168706800Y-107162600D02*
X169341800Y-107162600D01*
X162052000Y-107188000D02*
X168681400Y-107188000D01*
X168681400Y-107188000D02*
X168706800Y-107162600D01*
X155448000Y-103124000D02*
X155448000Y-103276400D01*
X159410400Y-104546400D02*
X162052000Y-107188000D01*
X156718000Y-104546400D02*
X159410400Y-104546400D01*
X155448000Y-103276400D02*
X156718000Y-104546400D01*
X158102684Y-95657358D02*
X157072642Y-95657358D01*
X155448000Y-109728000D02*
X152908000Y-112268000D01*
X155448000Y-97282000D02*
X155448000Y-103124000D01*
X155448000Y-103124000D02*
X155448000Y-109728000D01*
X157072642Y-95657358D02*
X155448000Y-97282000D01*
D20*
X144145000Y-113030000D02*
X147701000Y-113030000D01*
X147701000Y-113030000D02*
X147828000Y-112903000D01*
X158102684Y-113437358D02*
X156564642Y-113437358D01*
X151638000Y-116078000D02*
X150368000Y-114808000D01*
X153924000Y-116078000D02*
X151638000Y-116078000D01*
X156564642Y-113437358D02*
X153924000Y-116078000D01*
X158102684Y-113437358D02*
X160882642Y-113437358D01*
X160882642Y-113437358D02*
X162052000Y-112268000D01*
X144145000Y-120650000D02*
X144526000Y-120650000D01*
X144526000Y-120650000D02*
X149098000Y-125222000D01*
X151257000Y-125222000D02*
X154940000Y-125222000D01*
X154940000Y-125222000D02*
X156464000Y-123698000D01*
X156464000Y-123698000D02*
X156464000Y-114935000D01*
X158102684Y-110897358D02*
X156818642Y-110897358D01*
X156818642Y-110897358D02*
X152908000Y-114808000D01*
X158102684Y-110897358D02*
X159358642Y-110897358D01*
X166700200Y-110236000D02*
X168706800Y-112242600D01*
X160020000Y-110236000D02*
X166700200Y-110236000D01*
X159358642Y-110897358D02*
X160020000Y-110236000D01*
X170180000Y-132080000D02*
X167309800Y-129209800D01*
X167309800Y-129209800D02*
X167309800Y-128959600D01*
X158089600Y-126136400D02*
X161188400Y-126136400D01*
X166043600Y-128959600D02*
X167309800Y-128959600D01*
X164592000Y-127508000D02*
X166043600Y-128959600D01*
X162560000Y-127508000D02*
X164592000Y-127508000D01*
X161188400Y-126136400D02*
X162560000Y-127508000D01*
X167259000Y-120984000D02*
X168322000Y-120984000D01*
X168322000Y-120984000D02*
X173328642Y-115977358D01*
X173328642Y-115977358D02*
X173342684Y-115977358D01*
X163830000Y-120984000D02*
X164512000Y-120984000D01*
X172212000Y-114568042D02*
X173342684Y-113437358D01*
X172212000Y-115570000D02*
X172212000Y-114568042D01*
X168148000Y-119634000D02*
X172212000Y-115570000D01*
X165862000Y-119634000D02*
X168148000Y-119634000D01*
X164512000Y-120984000D02*
X165862000Y-119634000D01*
X162560000Y-132080000D02*
X162560000Y-129667000D01*
X162560000Y-129667000D02*
X163267400Y-128959600D01*
X163267400Y-128959600D02*
X163880800Y-128959600D01*
X158089600Y-128676400D02*
X163597600Y-128676400D01*
X163597600Y-128676400D02*
X163880800Y-128959600D01*
D19*
X179705000Y-92075000D02*
X178562000Y-92075000D01*
X174979642Y-95657358D02*
X173342684Y-95657358D01*
X178562000Y-92075000D02*
X174979642Y-95657358D01*
X148844000Y-108712000D02*
X148844000Y-121666000D01*
X148844000Y-121666000D02*
X149606000Y-122428000D01*
X149606000Y-122428000D02*
X150368000Y-122428000D01*
X173342684Y-95657358D02*
X173342684Y-95110684D01*
X173342684Y-95110684D02*
X172212000Y-93980000D01*
X172212000Y-93980000D02*
X150368000Y-93980000D01*
X150368000Y-93980000D02*
X148844000Y-95504000D01*
X148844000Y-95504000D02*
X148844000Y-108712000D01*
X148844000Y-108712000D02*
X149860000Y-109728000D01*
X149860000Y-109728000D02*
X152908000Y-109728000D01*
X158102684Y-131216400D02*
X155346400Y-131216400D01*
X150368000Y-126238000D02*
X150368000Y-122428000D01*
X155346400Y-131216400D02*
X150368000Y-126238000D01*
D20*
X158750000Y-96901000D02*
X160046358Y-98197358D01*
X151765000Y-96520000D02*
X154559000Y-96520000D01*
X151003000Y-95758000D02*
X151765000Y-96520000D01*
X160046358Y-98197358D02*
X160642684Y-98197358D01*
X160642684Y-98197358D02*
X160831842Y-98197358D01*
X160831842Y-98197358D02*
X162128200Y-96901000D01*
X162128200Y-96901000D02*
X175768000Y-96901000D01*
X175768000Y-96901000D02*
X176707800Y-97840800D01*
X176707800Y-97840800D02*
X176707800Y-132054600D01*
X176707800Y-132054600D02*
X174701200Y-134061200D01*
X174701200Y-134061200D02*
X154406600Y-134061200D01*
X154406600Y-134061200D02*
X151155400Y-130810000D01*
X151155400Y-130810000D02*
X151155400Y-129311400D01*
X151993600Y-121818400D02*
X151663400Y-121488200D01*
X151663400Y-121488200D02*
X151663400Y-118643400D01*
X151663400Y-118643400D02*
X150368000Y-117348000D01*
X156870400Y-109829600D02*
X155829000Y-110871000D01*
X158445200Y-109829600D02*
X156870400Y-109829600D01*
X159308800Y-108966000D02*
X158445200Y-109829600D01*
X159308800Y-106349800D02*
X159308800Y-108966000D01*
X159486600Y-106172000D02*
X159308800Y-106349800D01*
X160642684Y-95657358D02*
X160642684Y-96202116D01*
X151638000Y-103301800D02*
X151612600Y-103327200D01*
X151612600Y-103327200D02*
X151612600Y-108483400D01*
X151612600Y-108483400D02*
X151231600Y-108864400D01*
X165722684Y-98197358D02*
X165722684Y-99276284D01*
X156032200Y-133477000D02*
X154305000Y-131749800D01*
X173888400Y-133477000D02*
X156032200Y-133477000D01*
X175996600Y-131368800D02*
X173888400Y-133477000D01*
X175996600Y-100482400D02*
X175996600Y-131368800D01*
X175006000Y-99491800D02*
X175996600Y-100482400D01*
X165938200Y-99491800D02*
X175006000Y-99491800D01*
X165722684Y-99276284D02*
X165938200Y-99491800D01*
M02*
