M48
;DRILL file {KiCad 4.0.7-e2-6376~58~ubuntu16.04.1} date Mon Dec 18 21:23:51 2017
;FORMAT={2:4/ absolute / inch / suppress leading zeros}
FMAT,2
INCH,TZ
T1C0.013
T2C0.039
T3C0.040
T4C0.047
%
G90
G05
M72
T1
X58200Y-43050
X58200Y-44450
X58700Y-49300
X59150Y-44000
X59450Y-37700
X59510Y-50910
X59540Y-42860
X59550Y-49300
X59700Y-40670
X59840Y-47960
X60750Y-51870
X60850Y-38000
X61350Y-43650
X61600Y-45250
X62500Y-38150
X62790Y-41800
X64000Y-52000
X67000Y-52000
T2
X56750Y-41750
X56750Y-44500
X56750Y-47500
X58750Y-35500
X59200Y-39200
X59200Y-40200
X59200Y-41200
X59200Y-42200
X59200Y-45200
X59200Y-46200
X59200Y-47200
X59200Y-48200
X60200Y-40200
X60200Y-41200
X60200Y-42200
X60200Y-43200
X60200Y-44200
X60200Y-45200
X60200Y-46200
X60200Y-47200
X62250Y-35500
X62750Y-53750
X65750Y-35500
X67250Y-53750
X68750Y-35500
X70750Y-36250
X70750Y-38750
X70750Y-41500
X70750Y-44250
X70750Y-47250
X70750Y-50750
T3
X62240Y-49660
X62240Y-50660
X62245Y-37660
X62245Y-38660
X62245Y-39660
X62245Y-40660
X62245Y-41660
X62245Y-42660
X62245Y-43660
X62245Y-44660
X62245Y-45660
X62245Y-46660
X62245Y-47660
X62245Y-48660
X62245Y-51660
X63245Y-37660
X63245Y-38660
X63245Y-39660
X63245Y-40660
X63245Y-48660
X64245Y-37660
X64245Y-38660
X65245Y-37660
X65245Y-38660
X66245Y-37660
X66245Y-38660
X67245Y-37660
X67245Y-38660
X67245Y-39660
X68245Y-37660
X68245Y-38660
X68245Y-39660
X68245Y-40660
X68245Y-41660
X68245Y-42660
X68245Y-43660
X68245Y-44660
X68245Y-45660
X68245Y-46660
X68245Y-47660
X68245Y-48660
X68245Y-49660
X68245Y-50660
X68245Y-51660
T4
X63800Y-42200
X63800Y-44200
X66420Y-42190
X66420Y-44190
T0
M30
